<svg
  width="49"
  height="48"
  viewBox="0 0 49 48"
  fill="none"
  xmlns="http://www.w3.org/2000/svg"
>
  <mask
    id="mask0_5522_146"
    style="mask-type:alpha"
    maskUnits="userSpaceOnUse"
    x="0"
    y="0"
    width="49"
    height="48"
  >
    <rect x="0.333374" width="48" height="48" fill="#D9D9D9" />
  </mask>
  <g mask="url(#mask0_5522_146)">
    <path
      d="M9.33337 42C8.50837 42 7.80221 41.7062 7.21487 41.1185C6.62721 40.5312 6.33337 39.825 6.33337 39V9C6.33337 8.175 6.62721 7.46867 7.21487 6.881C7.80221 6.29367 8.50837 6 9.33337 6H19.5834C19.75 4.83333 20.2834 3.875 21.1834 3.125C22.0834 2.375 23.1334 2 24.3334 2C25.5334 2 26.5834 2.375 27.4834 3.125C28.3834 3.875 28.9167 4.83333 29.0834 6H39.3334C40.1584 6 40.8647 6.29367 41.4524 6.881C42.0397 7.46867 42.3334 8.175 42.3334 9V39C42.3334 39.825 42.0397 40.5312 41.4524 41.1185C40.8647 41.7062 40.1584 42 39.3334 42H9.33337ZM9.33337 39H39.3334V9H9.33337V39ZM14.3334 34H27.9834V31H14.3334V34ZM14.3334 25.5H34.3334V22.5H14.3334V25.5ZM14.3334 17H34.3334V14H14.3334V17ZM24.3334 8.15C24.8 8.15 25.2084 7.975 25.5584 7.625C25.9084 7.275 26.0834 6.86667 26.0834 6.4C26.0834 5.93333 25.9084 5.525 25.5584 5.175C25.2084 4.825 24.8 4.65 24.3334 4.65C23.8667 4.65 23.4584 4.825 23.1084 5.175C22.7584 5.525 22.5834 5.93333 22.5834 6.4C22.5834 6.86667 22.7584 7.275 23.1084 7.625C23.4584 7.975 23.8667 8.15 24.3334 8.15Z"
      fill="#1C1B1F"
    />
  </g>
</svg>
