<svg
  width="36"
  height="36"
  viewBox="0 0 36 36"
  fill="none"
  xmlns="http://www.w3.org/2000/svg"
>
  <path
    d="M16.492 21.5C17.8973 21.5 19.0833 21.0193 20.05 20.058C21.0167 19.0963 21.5 17.913 21.5 16.508C21.5 15.1027 21.0193 13.9167 20.058 12.95C19.0963 11.9833 17.913 11.5 16.508 11.5C15.1027 11.5 13.9167 11.9807 12.95 12.942C11.9833 13.9037 11.5 15.087 11.5 16.492C11.5 17.8973 11.9807 19.0833 12.942 20.05C13.9037 21.0167 15.087 21.5 16.492 21.5ZM26.15 28.3L20.95 23.1C20.2167 23.5667 19.475 23.9167 18.725 24.15C17.975 24.3833 17.2412 24.5 16.5235 24.5C14.3078 24.5 12.4167 23.7167 10.85 22.15C9.28333 20.5833 8.5 18.7 8.5 16.5C8.5 14.3 9.28333 12.4167 10.85 10.85C12.4167 9.28333 14.3 8.5 16.5 8.5C18.7 8.5 20.5833 9.28333 22.15 10.85C23.7167 12.4167 24.5 14.3078 24.5 16.5235C24.5 17.2412 24.375 17.975 24.125 18.725C23.875 19.475 23.5167 20.2167 23.05 20.95L28.3 26.2L26.15 28.3ZM3 36C2.2 36 1.5 35.7 0.9 35.1C0.3 34.5 0 33.8 0 33V24.4H3V33H11.6V36H3ZM24.4 36V33H33V24.4H36V33C36 33.8 35.7 34.5 35.1 35.1C34.5 35.7 33.8 36 33 36H24.4ZM0 11.6V3C0 2.2 0.3 1.5 0.9 0.9C1.5 0.3 2.2 0 3 0H11.6V3H3V11.6H0ZM33 11.6V3H24.4V0H33C33.8 0 34.5 0.3 35.1 0.9C35.7 1.5 36 2.2 36 3V11.6H33Z"
    fill="#1C1B1F"
  />
</svg>
