<svg
  width="36"
  height="36"
  viewBox="0 0 36 36"
  fill="none"
  xmlns="http://www.w3.org/2000/svg"
>
  <path
    d="M16.6 27.7H19.4L19.9 25C20.5667 24.8 21.1333 24.55 21.6 24.25C22.0667 23.95 22.5 23.6 22.9 23.2L26 24.15L27.3 21.45L24.95 19.95C25.0833 19.25 25.15 18.6 25.15 18C25.15 17.4 25.0833 16.75 24.95 16.05L27.3 14.55L26 11.85L22.9 12.8C22.5 12.4 22.0667 12.05 21.6 11.75C21.1333 11.45 20.5667 11.2 19.9 11L19.4 8.3H16.6L16.1 11C15.4333 11.2 14.8667 11.45 14.4 11.75C13.9333 12.05 13.5 12.4 13.1 12.8L10 11.85L8.7 14.55L11.05 16.05C10.9167 16.75 10.85 17.4 10.85 18C10.85 18.6 10.9167 19.25 11.05 19.95L8.7 21.45L10 24.15L13.1 23.2C13.5 23.6 13.9333 23.95 14.4 24.25C14.8667 24.55 15.4333 24.8 16.1 25L16.6 27.7ZM18 22.25C16.8 22.25 15.7917 21.8417 14.975 21.025C14.1583 20.2083 13.75 19.2 13.75 18C13.75 16.8 14.1583 15.7917 14.975 14.975C15.7917 14.1583 16.8 13.75 18 13.75C19.2 13.75 20.2083 14.1583 21.025 14.975C21.8417 15.7917 22.25 16.8 22.25 18C22.25 19.2 21.8417 20.2083 21.025 21.025C20.2083 21.8417 19.2 22.25 18 22.25ZM3 36C2.2 36 1.5 35.7 0.9 35.1C0.3 34.5 0 33.8 0 33V3C0 2.2 0.3 1.5 0.9 0.9C1.5 0.3 2.2 0 3 0H33C33.8 0 34.5 0.3 35.1 0.9C35.7 1.5 36 2.2 36 3V33C36 33.8 35.7 34.5 35.1 35.1C34.5 35.7 33.8 36 33 36H3ZM3 33H33V3H3V33Z"
    fill="#1C1B1F"
  />
</svg>
