<svg
  width="45"
  height="36"
  viewBox="0 0 45 36"
  fill="none"
  xmlns="http://www.w3.org/2000/svg"
>
  <path
    d="M2.66663 12.5V3C2.66663 2.2 2.96663 1.5 3.56663 0.9C4.16663 0.3 4.86663 0 5.66663 0H39.6666C40.4666 0 41.1666 0.3 41.7666 0.9C42.3666 1.5 42.6666 2.2 42.6666 3V12.5H39.6666V3H5.66663V12.5H2.66663ZM5.66663 30C4.86663 30 4.16663 29.7 3.56663 29.1C2.96663 28.5 2.66663 27.8 2.66663 27V15.5H5.66663V27H39.6666V15.5H42.6666V27C42.6666 27.8 42.3666 28.5 41.7666 29.1C41.1666 29.7 40.4666 30 39.6666 30H5.66663ZM0.666626 36V33H44.6666V36H0.666626ZM2.66663 15.5V12.5H14.6666C14.9386 12.5 15.1983 12.5667 15.4456 12.7C15.693 12.8333 15.8833 13.0333 16.0166 13.3L18.7666 18.9L25.3166 7.35C25.45 7.08333 25.6416 6.89167 25.8916 6.775C26.1416 6.65833 26.402 6.6 26.6726 6.6C26.9433 6.6 27.2016 6.65833 27.4476 6.775C27.6936 6.89167 27.8833 7.08333 28.0166 7.35L30.5441 12.5H42.6666V15.5H29.6166C29.3416 15.5 29.0791 15.4333 28.8291 15.3C28.5791 15.1667 28.3916 14.9667 28.2666 14.7L26.5666 11.25L20.0166 22.7C19.8926 22.9667 19.7065 23.1667 19.4581 23.3C19.2098 23.4333 18.9491 23.5 18.6761 23.5C18.4031 23.5 18.1416 23.4333 17.8916 23.3C17.6416 23.1667 17.45 22.9667 17.3166 22.7L13.7166 15.5H2.66663Z"
    fill="#1C1B1F"
  />
</svg>
