<svg width="200" height="200" xmlns="http://www.w3.org/2000/svg" shape-rendering="crispEdges" viewBox="0 -0.5 48 48"><path stroke="#13316c" d="M0 0h48M0 1h48M0 2h48M0 3h3m42 0h3M0 4h3m42 0h3M0 5h3m42 0h3M0 6h3m42 0h3M0 7h3m42 0h3M0 8h3m42 0h3M0 9h3m42 0h3M0 10h3m42 0h3M0 11h3m42 0h3M0 12h3m42 0h3M0 13h3m42 0h3M0 14h3m42 0h3M0 15h3m42 0h3M0 16h3m42 0h3M0 17h3m42 0h3M0 18h3m42 0h3M0 19h3m22 0h1m19 0h3M0 20h3m42 0h3M0 21h3m42 0h3M0 22h3m42 0h3M0 23h3m42 0h3M0 24h3m42 0h3M0 25h3m42 0h3M0 26h3m17 0h1m1 0h1m22 0h3M0 27h3m42 0h3M0 28h3m42 0h3M0 29h3m42 0h3M0 30h3m42 0h3M0 31h3m42 0h3M0 32h3m4 0h1m7 0h1m5 0h1m3 0h1m8 0h1m10 0h3M0 33h3m4 0h1m7 0h1m5 0h1m3 0h1m4 0h1m3 0h1m10 0h3M0 34h3m4 0h1m7 0h1m5 0h1m3 0h1m4 0h1m3 0h1m10 0h3M0 35h3m4 0h1m7 0h1m5 0h1m3 0h1m4 0h1m3 0h1m10 0h3M0 36h3m4 0h1m7 0h1m2 0h1m2 0h1m3 0h1m8 0h1m10 0h3M0 37h3m4 0h1m7 0h1m2 0h1m2 0h1m3 0h1m4 0h1m3 0h1m10 0h3M0 38h3m4 0h1m7 0h1m2 0h1m2 0h1m3 0h1m4 0h1m3 0h1m10 0h3M0 39h3m4 0h1m7 0h1m9 0h1m4 0h1m3 0h1m10 0h3M0 40h3m42 0h3M0 41h3m42 0h3M0 42h3m42 0h3M0 43h3m42 0h3M0 44h3m42 0h3M0 45h48M0 46h48M0 47h48"/><path stroke="#2655b4" d="M3 3h42M3 4h42M3 5h42M3 6h42M3 7h42M3 8h17m4 0h8m7 0h6M3 9h13m1 0h1m7 0h6m9 0h5M3 10h13m10 0h3m12 0h4M3 11h13m11 0h1m14 0h3M3 12h4m1 0h8m26 0h3M3 13h4m2 0h7m26 0h3M3 14h3m3 0h7m26 0h3M3 15h2m4 0h7m26 0h3M3 16h2m37 0h3M3 17h2m37 0h3M3 18h3m35 0h4M3 19h4m34 0h4M3 20h4m33 0h5M3 21h4m31 0h7M3 22h4m26 0h12M3 23h5m24 0h13M3 24h6m22 0h14M3 25h8m19 0h15M3 26h9m17 0h16M3 27h19m6 0h17M3 28h20m4 0h18M3 29h42M3 30h42M3 31h42M3 32h4m6 0h2m2 0h4m2 0h2m7 0h2m6 0h5M3 33h4m2 0h6m2 0h4m2 0h2m2 0h3m2 0h2m2 0h9M3 34h4m2 0h6m2 0h4m2 0h2m2 0h3m2 0h2m2 0h9M3 35h4m2 0h6m2 0h4m2 0h2m2 0h3m2 0h2m2 0h9M3 36h4m2 0h6m2 0h1m2 0h1m2 0h2m7 0h2m2 0h9M3 37h4m2 0h6m2 0h1m2 0h1m2 0h2m2 0h3m2 0h2m2 0h9M3 38h4m2 0h6m2 0h1m2 0h1m2 0h2m2 0h3m2 0h2m2 0h9M3 39h4m6 0h2m8 0h2m2 0h3m2 0h2m6 0h5M3 40h42M3 41h42M3 42h42M3 43h42M3 44h42"/><path stroke="#0f2658" d="M20 8h4m-5 1h1m4 0h1"/><path stroke="#0e2555" d="M32 8h1M6 16h1m-1 1h2m-1 1h1m-1 1h1m-1 1h1m-1 1h1m-1 1h1m0 1h1"/><path stroke="#5e5646" d="M33 8h5m-7 1h1m-2 1h1m-2 5h1m-1 1h1m-1 1h1m0 1h1m0 4h1m-2 1h1"/><path stroke="#224da4" d="M38 8h1"/><path stroke="#020305" d="M16 9h1m-1 1h2m7 0h1m-9 1h10m-9 1h4m1 0h3m-7 1h3m1 0h3"/><path stroke="#1e4491" d="M18 9h1"/><path stroke="#d1a620" d="M20 9h1"/><path stroke="#e7b717" d="M21 9h1"/><path stroke="#e7b617" d="M22 9h1m-6 9h1"/><path stroke="#e6b617" d="M23 9h1"/><path stroke="#b8b3a3" d="M32 9h1"/><path stroke="#ccc7b4" d="M33 9h1"/><path stroke="#cdc8b4" d="M34 9h1"/><path stroke="#cdcab5" d="M35 9h1"/><path stroke="#cfcbb4" d="M36 9h1"/><path stroke="#d1cdb4" d="M37 9h1"/><path stroke="#666354" d="M38 9h1"/><path stroke="#1e4391" d="M39 9h1"/><path stroke="#b59143" d="M18 10h1"/><path stroke="#edbb1d" d="M19 10h1"/><path stroke="#fac61d" d="M20 10h1"/><path stroke="#fdc91e" d="M21 10h1m-4 4h2m-1 1h1m-6 3h1m2 1h1m-5 2h1"/><path stroke="#fec81e" d="M22 10h1m-8 8h1"/><path stroke="#fdc81e" d="M23 10h1m-2 2h1m-3 2h2"/><path stroke="#fdc71d" d="M24 10h1"/><path stroke="#2552b0" d="M29 10h1"/><path stroke="#daba9e" d="M31 10h1"/><path stroke="#73b9c6" d="M32 10h1"/><path stroke="#1eb6ce" d="M33 10h1"/><path stroke="#1cb6cf" d="M34 10h1"/><path stroke="#1eb6cf" d="M35 10h1"/><path stroke="#22b6d0" d="M36 10h1"/><path stroke="#26b6d0" d="M37 10h1"/><path stroke="#d6d1b8" d="M38 10h1"/><path stroke="#918278" d="M39 10h1"/><path stroke="#1b3d85" d="M40 10h1M28 26h1"/><path stroke="#1f4493" d="M16 11h1"/><path stroke="#2654b3" d="M28 11h1m10 9h1m-9 3h1"/><path stroke="#3d4878" d="M29 11h1"/><path stroke="#ccbda0" d="M30 11h1"/><path stroke="#b5d1cc" d="M31 11h1"/><path stroke="#65cce6" d="M32 11h1"/><path stroke="#6dd0ed" d="M33 11h1"/><path stroke="#cbe5ee" d="M34 11h1"/><path stroke="#6ccfee" d="M35 11h1"/><path stroke="#38c9ee" d="M36 11h1"/><path stroke="#39c9ee" d="M37 11h1"/><path stroke="#9eccd0" d="M38 11h1"/><path stroke="#bbbfae" d="M39 11h1"/><path stroke="#a1978f" d="M40 11h1"/><path stroke="#1d4392" d="M41 11h1"/><path stroke="#224ca3" d="M7 12h1m-3 5h1m29 4h1m-6 3h1"/><path stroke="#173676" d="M16 12h1"/><path stroke="#4c3b06" d="M17 12h1"/><path stroke="#be9616" d="M26 12h1m-1 1h1m-10 1h1"/><path stroke="#1e4493" d="M27 12h1m-1 1h1m-1 1h1m0 3h1m0 1h1"/><path stroke="#214ca5" d="M28 12h1"/><path stroke="#4a4338" d="M29 12h1"/><path stroke="#feecc7" d="M30 12h1m-1 1h1m-1 1h1m-1 2h1m-1 1h1"/><path stroke="#3fc4d9" d="M31 12h1"/><path stroke="#41d2f5" d="M32 12h1"/><path stroke="#82defd" d="M33 12h1"/><path stroke="#e9f7fe" d="M34 12h1"/><path stroke="#80ddfe" d="M35 12h1"/><path stroke="#48d5fd" d="M36 12h1m-1 1h1m-1 1h1"/><path stroke="#49d5fd" d="M37 12h1m-1 1h1"/><path stroke="#1fbbdb" d="M38 12h1"/><path stroke="#cbd8cc" d="M39 12h1m-1 1h1"/><path stroke="#cbbb9e" d="M40 12h1"/><path stroke="#163575" d="M41 12h1m-1 1h1m-1 3h1"/><path stroke="#071738" d="M7 13h1m-1 1h1m-2 1h2m-1 1h1m8 0h1"/><path stroke="#204799" d="M8 13h1m-1 1h1"/><path stroke="#163576" d="M16 13h1m11 0h1m-1 1h1m-1 1h1m12 0h1m-14 1h1"/><path stroke="#bf9816" d="M17 13h1"/><path stroke="#fdc91f" d="M18 13h1m-1 2h1m-1 1h1m-7 2h2"/><path stroke="#e4a51b" d="M22 13h1"/><path stroke="#4e473b" d="M29 13h1"/><path stroke="#35c2dc" d="M31 13h1"/><path stroke="#bde7f0" d="M32 13h1"/><path stroke="#c0ecf6" d="M33 13h1"/><path stroke="#46d6fe" d="M34 13h1"/><path stroke="#47d5fd" d="M35 13h1m-1 2h1m0 2h1"/><path stroke="#20bbdc" d="M38 13h1"/><path stroke="#cbbc9f" d="M40 13h1m-1 1h1m-1 1h1"/><path stroke="#214a9e" d="M6 14h1"/><path stroke="#163677" d="M16 14h1m-1 1h1"/><path stroke="#eb611c" d="M22 14h1m3 1h1m0 1h1m-2 1h1"/><path stroke="#fe681f" d="M23 14h1m1 1h1m0 1h1m0 1h1"/><path stroke="#fe721e" d="M24 14h1"/><path stroke="#fd761d" d="M25 14h1"/><path stroke="#ad5511" d="M26 14h1"/><path stroke="#5f5747" d="M29 14h1"/><path stroke="#28bfdf" d="M31 14h1"/><path stroke="#e7f2ea" d="M32 14h1"/><path stroke="#e8f6ef" d="M33 14h1"/><path stroke="#46d6fd" d="M34 14h1"/><path stroke="#47d5fe" d="M35 14h1"/><path stroke="#49d4fd" d="M37 14h1m-1 1h1"/><path stroke="#21bcdd" d="M38 14h1"/><path stroke="#cbd8cd" d="M39 14h1"/><path stroke="#163475" d="M41 14h1"/><path stroke="#214ca3" d="M5 15h1m-1 1h1"/><path stroke="#20499d" d="M8 15h1"/><path stroke="#b58f15" d="M17 15h1"/><path stroke="#fdca1c" d="M20 15h1"/><path stroke="#feca19" d="M21 15h1"/><path stroke="#fe801f" d="M22 15h1"/><path stroke="#fe7d1c" d="M23 15h2m-2 1h2"/><path stroke="#fe901b" d="M27 15h1"/><path stroke="#feecc5" d="M30 15h1"/><path stroke="#1ebee0" d="M31 15h1"/><path stroke="#e7f2e9" d="M32 15h1"/><path stroke="#e8f5ef" d="M33 15h1"/><path stroke="#45d6fe" d="M34 15h1"/><path stroke="#48d5fe" d="M36 15h1m-1 1h1"/><path stroke="#22bdde" d="M38 15h1"/><path stroke="#cbd7cd" d="M39 15h1"/><path stroke="#0c214d" d="M8 16h1"/><path stroke="#0f2758" d="M9 16h1m3 0h3"/><path stroke="#0f2759" d="M10 16h1"/><path stroke="#0e2759" d="M11 16h1"/><path stroke="#0e2758" d="M12 16h1"/><path stroke="#b28d13" d="M17 16h1"/><path stroke="#fdc91d" d="M19 16h1m-8 7h1"/><path stroke="#feedbb" d="M20 16h1"/><path stroke="#fef4cd" d="M21 16h1"/><path stroke="#a17c63" d="M22 16h1"/><path stroke="#fd7618" d="M25 16h1"/><path stroke="#0cb7db" d="M31 16h1"/><path stroke="#82daf4" d="M32 16h1"/><path stroke="#b0e7f9" d="M33 16h1"/><path stroke="#dff4fe" d="M34 16h1"/><path stroke="#4ed7fd" d="M35 16h1"/><path stroke="#48d4fd" d="M37 16h1"/><path stroke="#22bcdf" d="M38 16h1"/><path stroke="#cbd8ce" d="M39 16h1"/><path stroke="#cbbca0" d="M40 16h1"/><path stroke="#b69013" d="M8 17h1"/><path stroke="#ca9f16" d="M9 17h1"/><path stroke="#caa016" d="M10 17h1"/><path stroke="#c9a015" d="M11 17h1"/><path stroke="#c99f14" d="M12 17h1"/><path stroke="#c99f13" d="M13 17h1"/><path stroke="#c89e12" d="M14 17h1"/><path stroke="#c69d11" d="M15 17h1"/><path stroke="#c59b0d" d="M16 17h1"/><path stroke="#9a790c" d="M17 17h1"/><path stroke="#d0b56f" d="M18 17h1"/><path stroke="#fee8a8" d="M19 17h1"/><path stroke="#fef9d2" d="M20 17h1"/><path stroke="#fefddb" d="M21 17h1"/><path stroke="#d6d6b5" d="M22 17h1"/><path stroke="#cbcaa8" d="M23 17h1"/><path stroke="#c7a282" d="M24 17h1"/><path stroke="#a83f0c" d="M25 17h1"/><path stroke="#0199bb" d="M31 17h1"/><path stroke="#33c3e5" d="M32 17h1"/><path stroke="#6ad8fa" d="M33 17h1"/><path stroke="#a2e5fe" d="M34 17h1"/><path stroke="#4ed6fd" d="M35 17h1"/><path stroke="#38c8ee" d="M37 17h1"/><path stroke="#13b3d5" d="M38 17h1"/><path stroke="#7798a0" d="M39 17h1"/><path stroke="#797684" d="M40 17h1"/><path stroke="#214a9f" d="M41 17h1"/><path stroke="#224ca4" d="M6 18h1"/><path stroke="#e5b51b" d="M8 18h1"/><path stroke="#fdc920" d="M9 18h2m1 1h4m-7 1h1m2 0h1m-3 1h1"/><path stroke="#fcc91f" d="M11 18h1"/><path stroke="#fec91e" d="M16 18h1"/><path stroke="#a48741" d="M18 18h1"/><path stroke="#7c7965" d="M19 18h1"/><path stroke="#7c7a66" d="M20 18h1"/><path stroke="#7c7b67" d="M21 18h1"/><path stroke="#7d7d68" d="M22 18h1"/><path stroke="#7e7e67" d="M23 18h1"/><path stroke="#636c89" d="M24 18h1"/><path stroke="#204aa0" d="M25 18h1"/><path stroke="#214ba0" d="M26 18h1"/><path stroke="#214ba1" d="M27 18h1"/><path stroke="#214aa1" d="M28 18h1"/><path stroke="#d3beb0" d="M31 18h1"/><path stroke="#6bb8cc" d="M32 18h1"/><path stroke="#18b9d9" d="M33 18h1"/><path stroke="#1bbadb" d="M34 18h1"/><path stroke="#1cbadc" d="M35 18h2"/><path stroke="#0ab4d5" d="M37 18h1"/><path stroke="#cecbb6" d="M38 18h1"/><path stroke="#928671" d="M39 18h1"/><path stroke="#18387c" d="M40 18h1"/><path stroke="#e5b61a" d="M8 19h1"/><path stroke="#fdc921" d="M9 19h2m-2 2h1"/><path stroke="#fcc920" d="M11 19h1m-2 1h1m15 0h3m-4 1h4m-3 1h1"/><path stroke="#d6aa18" d="M16 19h1"/><path stroke="#e8b818" d="M18 19h1"/><path stroke="#d0c498" d="M19 19h1"/><path stroke="#cfceb5" d="M20 19h4"/><path stroke="#a1a39d" d="M24 19h1"/><path stroke="#13306c" d="M26 19h3m-4 1h1m1 2h1m-3 1h2m-14 3h1"/><path stroke="#254375" d="M29 19h1"/><path stroke="#7b7362" d="M30 19h1m-1 1h1m2 0h2m-6 1h1m1 0h1m-4 1h1m1 0h1m-4 1h1m-2 1h1m2 0h1m-5 1h1m2 0h1m-5 1h1m2 0h1m-5 1h1m2 0h1m-4 1h3"/><path stroke="#c6cebf" d="M31 19h2m-2 1h1m-2 1h1m-2 1h1m-2 1h2m-3 1h2m-3 1h2m-3 1h2m-3 1h2"/><path stroke="#d2ddcd" d="M33 19h1"/><path stroke="#d3ddcd" d="M34 19h1"/><path stroke="#d3decd" d="M35 19h1"/><path stroke="#d4decc" d="M36 19h1"/><path stroke="#d7dfcb" d="M37 19h1"/><path stroke="#868372" d="M38 19h1"/><path stroke="#4d5788" d="M39 19h1"/><path stroke="#234ea7" d="M40 19h1"/><path stroke="#e6b619" d="M8 20h1"/><path stroke="#3b2f04" d="M11 20h1m-1 1h1m0 1h1"/><path stroke="#e8b81a" d="M13 20h1"/><path stroke="#e5b613" d="M14 20h1"/><path stroke="#e5b40e" d="M15 20h1"/><path stroke="#7c600c" d="M16 20h1"/><path stroke="#d6aa17" d="M17 20h1"/><path stroke="#feca1a" d="M18 20h1"/><path stroke="#feefbb" d="M19 20h1"/><path stroke="#fefde0" d="M20 20h1m1 0h2m-4 1h1m0 1h3m-3 1h1m1 0h1m-4 1h1m1 0h1"/><path stroke="#fefee0" d="M21 20h1m-3 1h1m1 0h3m-4 1h1"/><path stroke="#c6c5ae" d="M24 20h1"/><path stroke="#699dab" d="M29 20h1"/><path stroke="#777c78" d="M32 20h1"/><path stroke="#7b7361" d="M35 20h1"/><path stroke="#7c7460" d="M36 20h1"/><path stroke="#7c7360" d="M37 20h1"/><path stroke="#374f94" d="M38 20h1"/><path stroke="#e5b616" d="M8 21h1"/><path stroke="#fdc81f" d="M12 21h1"/><path stroke="#e3b315" d="M14 21h1"/><path stroke="#6a5205" d="M15 21h1"/><path stroke="#3a2b02" d="M16 21h1"/><path stroke="#c59a11" d="M17 21h1"/><path stroke="#fede94" d="M18 21h1"/><path stroke="#f5e3ae" d="M24 21h1"/><path stroke="#295099" d="M32 21h1"/><path stroke="#224ca2" d="M33 21h1m2 0h1"/><path stroke="#224ba3" d="M34 21h1"/><path stroke="#224ba2" d="M37 21h1"/><path stroke="#d4a90f" d="M8 22h1"/><path stroke="#f5c41d" d="M9 22h1"/><path stroke="#fcca20" d="M10 22h1"/><path stroke="#fdca20" d="M11 22h1m-2 1h1"/><path stroke="#020302" d="M13 22h1"/><path stroke="#e5b109" d="M14 22h1"/><path stroke="#816205" d="M15 22h1"/><path stroke="#c9a108" d="M16 22h1"/><path stroke="#fbeab6" d="M17 22h1"/><path stroke="#fefee2" d="M18 22h1m-2 2h1"/><path stroke="#fefee1" d="M19 22h1m-2 1h2m-2 1h2M8 32h5m3 0h1m5 0h1m3 0h6m3 0h5M8 33h1m7 0h1m5 0h1m3 0h1m4 0h1m3 0h1M8 34h1m7 0h1m5 0h1m3 0h1m4 0h1m3 0h1M8 35h1m7 0h1m5 0h1m3 0h1m4 0h1m3 0h1M8 36h1m7 0h1m2 0h1m2 0h1m3 0h6m3 0h1M8 37h1m7 0h1m2 0h1m2 0h1m3 0h1m4 0h1m3 0h1M8 38h1m7 0h1m2 0h1m2 0h1m3 0h1m4 0h1m3 0h1M8 39h5m3 0h7m3 0h1m4 0h1m3 0h5"/><path stroke="#fee8ad" d="M24 22h1"/><path stroke="#927309" d="M25 22h1"/><path stroke="#234ca4" d="M32 22h1"/><path stroke="#cba20d" d="M9 23h1"/><path stroke="#fdca1f" d="M11 23h1"/><path stroke="#614b07" d="M13 23h1"/><path stroke="#010201" d="M14 23h1"/><path stroke="#cba203" d="M15 23h1"/><path stroke="#fef2c3" d="M16 23h1"/><path stroke="#fefee3" d="M17 23h1"/><path stroke="#fefde1" d="M20 23h1m1 0h1m-2 1h1"/><path stroke="#bebda6" d="M24 23h1"/><path stroke="#615a70" d="M9 24h1"/><path stroke="#785e08" d="M10 24h1"/><path stroke="#7b6008" d="M11 24h1"/><path stroke="#ebba1a" d="M12 24h1"/><path stroke="#fcc618" d="M13 24h1"/><path stroke="#fbc526" d="M14 24h1"/><path stroke="#fdfde4" d="M15 24h1"/><path stroke="#fefde3" d="M16 24h1"/><path stroke="#bcbba5" d="M23 24h1"/><path stroke="#60699e" d="M24 24h1"/><path stroke="#3e56bf" d="M25 24h1"/><path stroke="#1c428e" d="M11 25h1"/><path stroke="#9a7b43" d="M12 25h1"/><path stroke="#aa850d" d="M13 25h1"/><path stroke="#a98519" d="M14 25h1"/><path stroke="#a9a995" d="M15 25h1"/><path stroke="#a9a895" d="M16 25h5"/><path stroke="#a9a894" d="M21 25h2"/><path stroke="#737484" d="M23 25h1"/><path stroke="#2f3e8b" d="M24 25h1"/><path stroke="#1d4493" d="M29 25h1"/><path stroke="#183a7e" d="M12 26h1"/><path stroke="#14316d" d="M14 26h1m1 0h4m1 0h1"/><path stroke="#14316c" d="M15 26h1"/><path stroke="#242e6b" d="M23 26h1"/><path stroke="#153270" d="M22 27h1"/><path stroke="#1e4595" d="M27 27h1"/><path stroke="#224ba1" d="M26 28h1"/></svg>
